<svg width="48" height="48" viewBox="0 0 48 48" fill="none" xmlns="http://www.w3.org/2000/svg">
<path d="M5.14286 0C2.30357 0 0 2.30357 0 5.14286V42.8571C0 45.6964 2.30357 48 5.14286 48H42.8571C45.6964 48 48 45.6964 48 42.8571V5.14286C48 2.30357 45.6964 0 42.8571 0H5.14286ZM29.6114 12.2982L29.681 12.5407L24.2367 16.5193C24.2367 16.5193 25.691 17.6536 26.4344 18.4859C26.7661 18.7061 27.0703 18.9651 27.3407 19.2573C28.3525 17.9848 30.1966 17.3486 32.8727 17.3486C35.3194 17.3486 37.2602 17.8875 38.6951 18.9649C40.3262 20.171 41.1422 21.9489 41.1429 24.2988V35.7018H35.6616V24.9343C35.6616 22.6839 34.7334 21.5584 32.8768 21.5578C31.0202 21.5571 30.09 22.6825 30.086 24.9343V35.7017H24.6007V24.9343C24.6007 23.3309 24.1365 22.2991 23.2085 21.8379C22.0191 22.6189 20.6853 23.1393 19.2713 23.3713C19.139 23.8121 19.0728 24.3326 19.0737 24.9343V35.7017H13.5876V24.2988C13.5876 23.7838 13.6269 23.2962 13.7053 22.8361L13.7049 22.8359C13.5792 21.7445 13.5237 20.6462 13.5388 19.5477L7.92921 19.4939C7.86857 20.1335 7.75832 21.7775 7.89257 24.2778C8.53414 26.5546 8.54807 28.8421 8.41179 30.9308C7.5525 28.9227 6.6375 27.0768 7.57639 24.3595C7.43914 21.8421 7.5465 20.1684 7.60821 19.491L6.93557 19.4841L6.85714 19.2613C15.3192 14.3559 19.7868 13.5027 29.6114 12.2982Z" fill="#3B82F6"/>
</svg>
