<svg width="32" height="32" viewBox="0 0 32 32" fill="none" xmlns="http://www.w3.org/2000/svg">
<path id="Vector" d="M3.42857 0C1.53571 0 0 1.53571 0 3.42857V28.5714C0 30.4643 1.53571 32 3.42857 32H28.5714C30.4643 32 32 30.4643 32 28.5714V3.42857C32 1.53571 30.4643 0 28.5714 0H3.42857ZM19.7409 8.19879L19.7874 8.3605L16.1578 11.0129C16.1578 11.0129 17.1274 11.7691 17.6229 12.3239C17.8441 12.4707 18.0469 12.6434 18.2271 12.8382C18.9016 11.9899 20.1311 11.5657 21.9151 11.5657C23.5463 11.5657 24.8401 11.925 25.7967 12.6433C26.8841 13.4474 27.4281 14.6326 27.4286 16.1992V23.8012H23.7744V16.6229C23.7744 15.1226 23.1556 14.3723 21.9179 14.3719C20.6801 14.3714 20.06 15.1216 20.0574 16.6229V23.8011H16.4005V16.6229C16.4005 15.5539 16.091 14.8661 15.4724 14.5586C14.6794 15.0793 13.7902 15.4262 12.8475 15.5809C12.7594 15.8747 12.7152 16.2217 12.7158 16.6229V23.8011H9.05843V16.1992C9.05843 15.8559 9.08457 15.5308 9.13686 15.2241L9.13657 15.2239C9.05278 14.4963 9.0158 13.7641 9.02586 13.0318L5.28614 12.9959C5.24571 13.4224 5.17221 14.5184 5.26171 16.1852C5.68943 17.7031 5.69871 19.2281 5.60786 20.6205C5.035 19.2818 4.425 18.0512 5.05093 16.2396C4.95943 14.5614 5.031 13.4456 5.07214 12.994L4.62371 12.9894L4.57143 12.8409C10.2128 9.57057 13.1912 9.00179 19.7409 8.19879Z" fill="#294C74"/>
</svg>
